<svg xmlns="http://www.w3.org/2000/svg" version="1.1" xmlns:xlink="http://www.w3.org/1999/xlink" xmlns:svgjs="http://svgjs.dev/svgjs" width="100%" height="100%" viewBox="0 0 1000 600"><rect width="1000" height="600" x="0" y="0" fill="#ee9553"/><g><rect width="333.3333333333333" height="333.3333333333333" rx="13.333333333333334" ry="13.333333333333334" y="163.04169254139032" fill="#2596be" transform="matrix(0.8876614295265225,0,0,0.8876614295265225,0,7.330616232168282)" x="140.8194580078125"/><path d="M259.97639548341874 254.70834790826538L299.169001323824 254.70834790826538Q328.20596544236696 254.70834790826538 341.60090667896117 266.0604876490827Q354.9958479155554 277.3834445113889 354.9958479155554 298.5118485534242L354.9958479155554 298.5118485534242Q354.9958479155554 308.0546498265534 351.84409703635674 316.6344161088163Q348.7215290356692 325.18499951256814 341.74682107151665 331.72196429905426Q334.77211310736413 338.2297462070292 323.4491562450579 341.9651546564498Q312.0970165042406 345.7297459843815 295.6962387810033 345.7297459843815L295.6962387810033 345.7297459843815L277.42775683305564 345.7297459843815L277.42775683305564 404.70834345531154L259.97639548341874 404.70834345531154L259.97639548341874 254.70834790826538ZM297.5347601272025 269.5916159489256L297.5347601272025 269.5916159489256L277.42775683305564 269.5916159489256L277.42775683305564 330.72974642967694L293.7409859207597 330.72974642967694Q308.09896214822015 330.72974642967694 317.7001291783715 327.6655441860116Q327.27211333001185 324.57215906383516 332.11647116285417 317.6558168567048Q336.93164611718544 310.7394746495744 336.93164611718544 299.24142051620163L336.93164611718544 299.24142051620163Q336.93164611718544 284.2706038400081 327.3888448440562 276.9165184552113Q317.846043570927 269.5916159489256 297.5347601272025 269.5916159489256Z " fill="#ee9553" transform="matrix(0.8876614295265225,0,0,0.8876614295265225,0,7.330616232168282)"/><path d="M557.4861231366265 261.583348859466L585.4652898032932 261.583348859466Q606.1944564699598 261.583348859466 615.7569564699598 269.68751552613264Q625.3194564699598 277.77084885946596 625.3194564699598 292.85418219279927L625.3194564699598 292.85418219279927Q625.3194564699598 299.66668219279927 623.0694564699598 305.79168219279927Q620.8402898032932 311.89584885946596 615.8611231366265 316.5625155261326Q610.8819564699598 321.20834885946596 602.7986231366265 323.8750155261326Q594.6944564699598 326.5625155261326 582.9861231366265 326.5625155261326L582.9861231366265 326.5625155261326L569.9444564699598 326.5625155261326L569.9444564699598 368.6666821927993L557.4861231366265 368.6666821927993L557.4861231366265 261.583348859466ZM584.2986231366265 272.208348859466L584.2986231366265 272.208348859466L569.9444564699598 272.208348859466L569.9444564699598 315.8541821927993L581.5902898032932 315.8541821927993Q591.8402898032932 315.8541821927993 598.6944564699598 313.6666821927993Q605.5277898032932 311.458348859466 608.9861231366265 306.520848859466Q612.4236231366265 301.5833488594659 612.4236231366265 293.37501552613264L612.4236231366265 293.37501552613264Q612.4236231366265 282.68751552613264 605.6111231366265 277.43751552613264Q598.7986231366265 272.208348859466 584.2986231366265 272.208348859466ZM645.8819564699598 254.70834885946596L658.0486231366265 254.70834885946596L658.0486231366265 288.75001552613264Q658.0486231366265 291.68751552613264 657.9027898032932 294.645848859466Q657.7569564699598 297.62501552613264 657.3819564699598 300.10418219279927L657.3819564699598 300.10418219279927L658.1944564699598 300.10418219279927Q660.6944564699598 295.85418219279927 664.5277898032932 292.97918219279927Q668.3819564699598 290.083348859466 673.2777898032932 288.583348859466Q678.1944564699598 287.083348859466 683.6944564699598 287.083348859466L683.6944564699598 287.083348859466Q693.3611231366265 287.083348859466 699.8402898032932 290.145848859466Q706.3194564699598 293.22918219279927 709.5694564699598 299.66668219279927Q712.8402898032932 306.12501552613264 712.8402898032932 316.3750155261326L712.8402898032932 316.3750155261326L712.8402898032932 368.6666821927993L700.8194564699598 368.6666821927993L700.8194564699598 317.1875155261326Q700.8194564699598 307.145848859466 696.2361231366265 302.16668219279927Q691.6736231366265 297.18751552613264 682.2152898032932 297.18751552613264L682.2152898032932 297.18751552613264Q673.2777898032932 297.18751552613264 667.9652898032932 300.583348859466Q662.6736231366265 304.00001552613264 660.3611231366265 310.583348859466Q658.0486231366265 317.1875155261326 658.0486231366265 326.70834885946596L658.0486231366265 326.70834885946596L658.0486231366265 368.6666821927993L645.8819564699598 368.6666821927993L645.8819564699598 254.70834885946596ZM807.0902898032932 328.3750155261326L807.0902898032932 328.3750155261326Q807.0902898032932 338.27084885946596 804.5277898032932 346.0416821927993Q801.9652898032932 353.7916821927993 797.1319564699598 359.14584885946596Q792.2986231366265 364.5000155261326 785.4652898032932 367.3125155261326Q778.6111231366265 370.1250155261326 769.9652898032932 370.1250155261326L769.9652898032932 370.1250155261326Q761.9027898032932 370.1250155261326 755.2152898032932 367.3125155261326Q748.5069564699598 364.5000155261326 743.6319564699598 359.14584885946596Q738.7569564699598 353.7916821927993 736.0902898032932 346.0416821927993Q733.4236231366265 338.27084885946596 733.4236231366265 328.3750155261326L733.4236231366265 328.3750155261326Q733.4236231366265 315.20834885946596 737.8819564699598 305.93751552613264Q742.3611231366265 296.66668219279927 750.6736231366265 291.79168219279927Q758.9861231366265 286.93751552613264 770.4861231366265 286.93751552613264L770.4861231366265 286.93751552613264Q781.4652898032932 286.93751552613264 789.6944564699598 291.8333488594659Q797.9444564699598 296.75001552613264 802.5277898032932 306.00001552613264Q807.0902898032932 315.27084885946596 807.0902898032932 328.3750155261326ZM746.0069564699598 328.3750155261326L746.0069564699598 328.3750155261326Q746.0069564699598 338.0416821927993 748.5694564699598 345.14584885946596Q751.1319564699598 352.2500155261326 756.4861231366265 356.14584885946596Q761.8402898032932 360.02084885946596 770.2569564699598 360.02084885946596L770.2569564699598 360.02084885946596Q778.6111231366265 360.02084885946596 783.9861231366265 356.14584885946596Q789.3819564699598 352.2500155261326 791.9444564699598 345.14584885946596Q794.5069564699598 338.0416821927993 794.5069564699598 328.3750155261326L794.5069564699598 328.3750155261326Q794.5069564699598 318.7916821927993 791.9444564699598 311.7916821927993Q789.3819564699598 304.79168219279927 784.0277898032932 301.00001552613264Q778.6736231366265 297.18751552613264 770.1944564699598 297.18751552613264L770.1944564699598 297.18751552613264Q757.6527898032932 297.18751552613264 751.8402898032932 305.458348859466Q746.0069564699598 313.7291821927993 746.0069564699598 328.3750155261326ZM866.13195646996 286.93751552613264L866.13195646996 286.93751552613264Q880.4236231366265 286.93751552613264 887.7361231366265 293.91668219279927Q895.06945646996 300.91668219279927 895.06945646996 316.3750155261326L895.06945646996 316.3750155261326L895.06945646996 368.6666821927993L883.0486231366265 368.6666821927993L883.0486231366265 317.1875155261326Q883.0486231366265 307.145848859466 878.4652898032932 302.16668219279927Q873.9027898032932 297.18751552613264 864.44445646996 297.18751552613264L864.44445646996 297.18751552613264Q851.1111231366265 297.18751552613264 845.69445646996 304.72918219279927Q840.2777898032932 312.27084885946596 840.2777898032932 326.6250155261326L840.2777898032932 326.6250155261326L840.2777898032932 368.6666821927993L828.1111231366265 368.6666821927993L828.1111231366265 288.395848859466L837.9236231366265 288.395848859466L839.75695646996 299.958348859466L840.4236231366265 299.958348859466Q842.9861231366265 295.7083488594659 846.9444564699598 292.833348859466Q850.9027898032932 289.93751552613264 855.7986231366265 288.43751552613264Q860.7152898032932 286.93751552613264 866.13195646996 286.93751552613264ZM942.5277898032932 404.70834885946596L942.5277898032932 404.70834885946596Q926.69445646996 404.70834885946596 918.1319564699597 398.8125155261327Q909.56945646996 392.9166821927993 909.56945646996 382.2916821927993L909.56945646996 382.2916821927993Q909.56945646996 374.7500155261326 914.3611231366265 369.39584885946596Q919.1527898032932 364.0625155261326 927.6527898032932 362.2916821927993L927.6527898032932 362.2916821927993Q924.5069564699597 360.83334885946596 922.2777898032932 357.89584885946596Q920.0277898032932 354.9791821927993 920.0277898032932 351.1666821927993L920.0277898032932 351.1666821927993Q920.0277898032932 346.77084885946596 922.4861231366265 343.4375155261326Q924.94445646996 340.1041821927993 930.00695646996 337.02084885946596L930.00695646996 337.02084885946596Q923.69445646996 334.45834885946596 919.7777898032932 328.3541821927993Q915.8611231366265 322.2291821927993 915.8611231366265 314.1041821927993L915.8611231366265 314.1041821927993Q915.8611231366265 305.458348859466 919.44445646996 299.333348859466Q923.0486231366265 293.22918219279927 929.8611231366265 290.00001552613264Q936.6736231366265 286.79168219279927 946.3402898032932 286.79168219279927L946.3402898032932 286.79168219279927Q948.4652898032932 286.79168219279927 950.6111231366265 286.958348859466Q952.7777898032932 287.1458488594659 954.75695646996 287.47918219279927Q956.7361231366265 287.81251552613264 958.19445646996 288.25001552613264L958.19445646996 288.25001552613264L985.7361231366265 288.25001552613264L985.7361231366265 296.0833488594659L970.94445646996 297.91668219279927Q973.13195646996 300.7708488594659 974.6111231366265 304.79168219279927Q976.0694564699597 308.833348859466 976.0694564699597 313.7291821927993L976.0694564699597 313.7291821927993Q976.0694564699597 325.7500155261326 967.94445646996 332.8125155261326Q959.7986231366265 339.8750155261326 945.5902898032932 339.8750155261326L945.5902898032932 339.8750155261326Q942.2361231366265 339.8750155261326 938.7152898032932 339.2916821927993L938.7152898032932 339.2916821927993Q935.13195646996 341.27084885946596 933.25695646996 343.6875155261326Q931.38195646996 346.1041821927993 931.38195646996 349.2500155261326L931.38195646996 349.2500155261326Q931.38195646996 351.6041821927993 932.81945646996 353.0000155261327Q934.25695646996 354.3750155261326 936.9652898032932 355.0000155261326Q939.6736231366265 355.6250155261326 943.4652898032932 355.6250155261326L943.4652898032932 355.6250155261326L957.6111231366265 355.6250155261326Q970.7152898032932 355.6250155261326 977.7152898032932 361.1250155261326Q984.7152898032932 366.6250155261327 984.7152898032932 377.1666821927993L984.7152898032932 377.1666821927993Q984.7152898032932 390.5000155261327 973.8611231366265 397.6041821927993Q963.0277898032932 404.70834885946596 942.5277898032932 404.70834885946596ZM942.88195646996 395.1875155261327L942.88195646996 395.1875155261327Q952.8402898032932 395.1875155261327 959.4027898032932 393.1666821927993Q965.9652898032932 391.14584885946596 969.2152898032932 387.3750155261327Q972.4861231366265 383.6041821927993 972.4861231366265 378.4166821927993L972.4861231366265 378.4166821927993Q972.4861231366265 373.58334885946596 970.2777898032932 371.1250155261326Q968.0902898032932 368.6666821927993 963.8402898032932 367.83334885946596Q959.5902898032932 366.9791821927993 953.44445646996 366.9791821927993L953.44445646996 366.9791821927993L939.5277898032932 366.9791821927993Q934.0902898032932 366.9791821927993 930.06945646996 368.6666821927993Q926.0486231366265 370.3541821927993 923.88195646996 373.64584885946596Q921.7152898032932 376.9375155261326 921.7152898032932 381.8541821927993L921.7152898032932 381.8541821927993Q921.7152898032932 388.3750155261327 927.2152898032932 391.77084885946596Q932.7152898032932 395.1875155261327 942.88195646996 395.1875155261327ZM946.0486231366265 331.02084885946596L946.0486231366265 331.02084885946596Q954.75695646996 331.02084885946596 959.1527898032932 326.6250155261326Q963.5486231366265 322.2291821927993 963.5486231366265 313.8125155261326L963.5486231366265 313.8125155261326Q963.5486231366265 304.79168219279927 959.06945646996 300.29168219279927Q954.6111231366265 295.79168219279927 945.88195646996 295.79168219279927L945.88195646996 295.79168219279927Q937.5486231366265 295.79168219279927 933.0277898032932 300.43751552613264Q928.5277898032932 305.083348859466 928.5277898032932 314.02084885946596L928.5277898032932 314.02084885946596Q928.5277898032932 322.2291821927993 933.06945646996 326.6250155261326Q937.6111231366265 331.02084885946596 946.0486231366265 331.02084885946596Z " fill="#2596be" transform="matrix(0.8876614295265225,0,0,0.8876614295265225,0,7.330616232168282)"/></g></svg>